<mxfile host="app.diagrams.net" modified="2023-06-09T10:09:02.570Z" agent="5.0 (Windows NT 10.0; Win64; x64) AppleWebKit/537.36 (KHTML, like Gecko) Chrome/114.0.0.0 Safari/537.36" etag="9UgVKYkGlgik9zYv-JwP" version="21.0.6" type="github">
  <diagram name="Страница 1" id="dsH4U7FuIB3Y0fgrTgoz">
    <mxGraphModel dx="1434" dy="796" grid="1" gridSize="10" guides="1" tooltips="1" connect="1" arrows="1" fold="1" page="1" pageScale="1" pageWidth="827" pageHeight="1169" math="0" shadow="0">
      <root>
        <mxCell id="0" />
        <mxCell id="1" parent="0" />
        <mxCell id="DO3_-I0N0fBDQWKYTIKw-1" value="q0" style="ellipse;whiteSpace=wrap;html=1;aspect=fixed;" parent="1" vertex="1">
          <mxGeometry x="360" y="80" width="80" height="80" as="geometry" />
        </mxCell>
        <mxCell id="DO3_-I0N0fBDQWKYTIKw-2" value="q1" style="ellipse;whiteSpace=wrap;html=1;aspect=fixed;" parent="1" vertex="1">
          <mxGeometry x="70" y="110" width="80" height="80" as="geometry" />
        </mxCell>
        <mxCell id="DO3_-I0N0fBDQWKYTIKw-3" value="q2" style="ellipse;whiteSpace=wrap;html=1;aspect=fixed;" parent="1" vertex="1">
          <mxGeometry x="290" y="200" width="80" height="80" as="geometry" />
        </mxCell>
        <mxCell id="DO3_-I0N0fBDQWKYTIKw-4" value="q3" style="ellipse;whiteSpace=wrap;html=1;aspect=fixed;" parent="1" vertex="1">
          <mxGeometry x="440" y="200" width="80" height="80" as="geometry" />
        </mxCell>
        <mxCell id="DO3_-I0N0fBDQWKYTIKw-5" value="q4" style="ellipse;whiteSpace=wrap;html=1;aspect=fixed;" parent="1" vertex="1">
          <mxGeometry x="610" y="110" width="80" height="80" as="geometry" />
        </mxCell>
        <mxCell id="DO3_-I0N0fBDQWKYTIKw-6" value="q5" style="ellipse;whiteSpace=wrap;html=1;aspect=fixed;" parent="1" vertex="1">
          <mxGeometry x="130" y="310" width="80" height="80" as="geometry" />
        </mxCell>
        <mxCell id="DO3_-I0N0fBDQWKYTIKw-8" value="a" style="endArrow=classic;html=1;rounded=0;entryX=1;entryY=0.5;entryDx=0;entryDy=0;fontSize=21;" parent="1" target="DO3_-I0N0fBDQWKYTIKw-2" edge="1">
          <mxGeometry x="0.0267" y="-16" width="50" height="50" relative="1" as="geometry">
            <mxPoint x="360" y="120" as="sourcePoint" />
            <mxPoint x="410" y="70" as="targetPoint" />
            <mxPoint as="offset" />
          </mxGeometry>
        </mxCell>
        <mxCell id="DO3_-I0N0fBDQWKYTIKw-9" value="b" style="endArrow=classic;html=1;rounded=0;fontSize=21;labelPosition=center;verticalLabelPosition=top;align=center;verticalAlign=bottom;" parent="1" target="DO3_-I0N0fBDQWKYTIKw-3" edge="1">
          <mxGeometry width="50" height="50" relative="1" as="geometry">
            <mxPoint x="400" y="160" as="sourcePoint" />
            <mxPoint x="450" y="110" as="targetPoint" />
          </mxGeometry>
        </mxCell>
        <mxCell id="DO3_-I0N0fBDQWKYTIKw-10" value="c" style="endArrow=classic;html=1;rounded=0;entryX=0;entryY=0;entryDx=0;entryDy=0;fontSize=21;labelPosition=center;verticalLabelPosition=top;align=center;verticalAlign=bottom;" parent="1" target="DO3_-I0N0fBDQWKYTIKw-4" edge="1">
          <mxGeometry width="50" height="50" relative="1" as="geometry">
            <mxPoint x="400" y="160" as="sourcePoint" />
            <mxPoint x="450" y="110" as="targetPoint" />
          </mxGeometry>
        </mxCell>
        <mxCell id="DO3_-I0N0fBDQWKYTIKw-11" value="d" style="endArrow=classic;html=1;rounded=0;fontSize=21;labelPosition=center;verticalLabelPosition=top;align=center;verticalAlign=bottom;" parent="1" target="DO3_-I0N0fBDQWKYTIKw-5" edge="1">
          <mxGeometry width="50" height="50" relative="1" as="geometry">
            <mxPoint x="440" y="120" as="sourcePoint" />
            <mxPoint x="490" y="70" as="targetPoint" />
          </mxGeometry>
        </mxCell>
        <mxCell id="DO3_-I0N0fBDQWKYTIKw-12" value="f" style="endArrow=classic;html=1;rounded=0;entryX=0.5;entryY=0;entryDx=0;entryDy=0;labelPosition=center;verticalLabelPosition=top;align=center;verticalAlign=bottom;fontSize=21;" parent="1" target="DO3_-I0N0fBDQWKYTIKw-6" edge="1">
          <mxGeometry width="50" height="50" relative="1" as="geometry">
            <mxPoint x="110" y="190" as="sourcePoint" />
            <mxPoint x="160" y="140" as="targetPoint" />
          </mxGeometry>
        </mxCell>
        <mxCell id="DO3_-I0N0fBDQWKYTIKw-13" value="q10" style="ellipse;whiteSpace=wrap;html=1;aspect=fixed;" parent="1" vertex="1">
          <mxGeometry x="170" y="440" width="80" height="80" as="geometry" />
        </mxCell>
        <mxCell id="DO3_-I0N0fBDQWKYTIKw-39" value="" style="edgeStyle=orthogonalEdgeStyle;rounded=0;orthogonalLoop=1;jettySize=auto;html=1;fontSize=21;" parent="1" source="DO3_-I0N0fBDQWKYTIKw-15" target="DO3_-I0N0fBDQWKYTIKw-3" edge="1">
          <mxGeometry relative="1" as="geometry" />
        </mxCell>
        <mxCell id="DO3_-I0N0fBDQWKYTIKw-15" value="q8" style="ellipse;whiteSpace=wrap;html=1;aspect=fixed;" parent="1" vertex="1">
          <mxGeometry x="290" y="320" width="80" height="80" as="geometry" />
        </mxCell>
        <mxCell id="DO3_-I0N0fBDQWKYTIKw-16" value="l" style="endArrow=classic;html=1;rounded=0;entryX=0.5;entryY=0;entryDx=0;entryDy=0;fontSize=21;labelPosition=right;verticalLabelPosition=bottom;align=left;verticalAlign=top;" parent="1" target="DO3_-I0N0fBDQWKYTIKw-15" edge="1">
          <mxGeometry x="-1" y="10" width="50" height="50" relative="1" as="geometry">
            <mxPoint x="330" y="280" as="sourcePoint" />
            <mxPoint x="380" y="230" as="targetPoint" />
            <mxPoint as="offset" />
          </mxGeometry>
        </mxCell>
        <mxCell id="DO3_-I0N0fBDQWKYTIKw-17" value="q7" style="ellipse;whiteSpace=wrap;html=1;aspect=fixed;" parent="1" vertex="1">
          <mxGeometry x="610" y="240" width="80" height="80" as="geometry" />
        </mxCell>
        <mxCell id="DO3_-I0N0fBDQWKYTIKw-18" value="k" style="endArrow=classic;html=1;rounded=0;entryX=0.5;entryY=0;entryDx=0;entryDy=0;labelPosition=right;verticalLabelPosition=top;align=left;verticalAlign=bottom;fontSize=21;" parent="1" target="DO3_-I0N0fBDQWKYTIKw-17" edge="1">
          <mxGeometry x="0.2" width="50" height="50" relative="1" as="geometry">
            <mxPoint x="650" y="190" as="sourcePoint" />
            <mxPoint x="700" y="140" as="targetPoint" />
            <mxPoint as="offset" />
          </mxGeometry>
        </mxCell>
        <mxCell id="DO3_-I0N0fBDQWKYTIKw-19" value="q12" style="ellipse;whiteSpace=wrap;html=1;aspect=fixed;" parent="1" vertex="1">
          <mxGeometry x="610" y="370" width="80" height="80" as="geometry" />
        </mxCell>
        <mxCell id="DO3_-I0N0fBDQWKYTIKw-20" value="u" style="endArrow=classic;html=1;rounded=0;entryX=0.5;entryY=0;entryDx=0;entryDy=0;fontSize=21;labelPosition=right;verticalLabelPosition=top;align=left;verticalAlign=bottom;" parent="1" target="DO3_-I0N0fBDQWKYTIKw-19" edge="1">
          <mxGeometry x="0.2" width="50" height="50" relative="1" as="geometry">
            <mxPoint x="650" y="320" as="sourcePoint" />
            <mxPoint x="700" y="270" as="targetPoint" />
            <mxPoint as="offset" />
          </mxGeometry>
        </mxCell>
        <mxCell id="DO3_-I0N0fBDQWKYTIKw-21" value="q9" style="ellipse;whiteSpace=wrap;html=1;aspect=fixed;" parent="1" vertex="1">
          <mxGeometry x="230" y="585" width="80" height="80" as="geometry" />
        </mxCell>
        <mxCell id="DO3_-I0N0fBDQWKYTIKw-22" value="q" style="endArrow=classic;html=1;rounded=0;entryX=0.313;entryY=0.038;entryDx=0;entryDy=0;entryPerimeter=0;fontSize=21;labelPosition=right;verticalLabelPosition=top;align=left;verticalAlign=bottom;" parent="1" target="DO3_-I0N0fBDQWKYTIKw-21" edge="1">
          <mxGeometry width="50" height="50" relative="1" as="geometry">
            <mxPoint x="210" y="520" as="sourcePoint" />
            <mxPoint x="260" y="470" as="targetPoint" />
          </mxGeometry>
        </mxCell>
        <mxCell id="DO3_-I0N0fBDQWKYTIKw-23" value="q11" style="ellipse;whiteSpace=wrap;html=1;aspect=fixed;" parent="1" vertex="1">
          <mxGeometry x="350" y="670" width="80" height="80" as="geometry" />
        </mxCell>
        <mxCell id="DO3_-I0N0fBDQWKYTIKw-24" value="w" style="endArrow=classic;html=1;rounded=0;fontSize=21;labelPosition=right;verticalLabelPosition=top;align=left;verticalAlign=bottom;" parent="1" target="DO3_-I0N0fBDQWKYTIKw-23" edge="1">
          <mxGeometry x="-0.0024" width="50" height="50" relative="1" as="geometry">
            <mxPoint x="300" y="650" as="sourcePoint" />
            <mxPoint x="350" y="600" as="targetPoint" />
            <mxPoint as="offset" />
          </mxGeometry>
        </mxCell>
        <mxCell id="DO3_-I0N0fBDQWKYTIKw-25" value="q6" style="ellipse;whiteSpace=wrap;html=1;aspect=fixed;" parent="1" vertex="1">
          <mxGeometry x="510" y="750" width="80" height="80" as="geometry" />
        </mxCell>
        <mxCell id="DO3_-I0N0fBDQWKYTIKw-26" value="z" style="endArrow=classic;html=1;rounded=0;entryX=0;entryY=0;entryDx=0;entryDy=0;fontSize=21;labelPosition=right;verticalLabelPosition=top;align=left;verticalAlign=bottom;" parent="1" target="DO3_-I0N0fBDQWKYTIKw-25" edge="1">
          <mxGeometry width="50" height="50" relative="1" as="geometry">
            <mxPoint x="430" y="720" as="sourcePoint" />
            <mxPoint x="480" y="670" as="targetPoint" />
          </mxGeometry>
        </mxCell>
        <mxCell id="DO3_-I0N0fBDQWKYTIKw-27" value="e" style="endArrow=classic;html=1;rounded=0;entryX=1;entryY=1;entryDx=0;entryDy=0;fontSize=21;labelPosition=center;verticalLabelPosition=top;align=center;verticalAlign=bottom;" parent="1" target="DO3_-I0N0fBDQWKYTIKw-2" edge="1">
          <mxGeometry width="50" height="50" relative="1" as="geometry">
            <mxPoint x="290" y="230" as="sourcePoint" />
            <mxPoint x="340" y="180" as="targetPoint" />
          </mxGeometry>
        </mxCell>
        <mxCell id="DO3_-I0N0fBDQWKYTIKw-28" value="m" style="endArrow=classic;html=1;rounded=0;entryX=0;entryY=0;entryDx=0;entryDy=0;fontSize=21;labelPosition=left;verticalLabelPosition=top;align=right;verticalAlign=bottom;" parent="1" target="DO3_-I0N0fBDQWKYTIKw-13" edge="1">
          <mxGeometry width="50" height="50" relative="1" as="geometry">
            <mxPoint x="70" y="160" as="sourcePoint" />
            <mxPoint x="120" y="110" as="targetPoint" />
            <Array as="points">
              <mxPoint x="50" y="350" />
            </Array>
          </mxGeometry>
        </mxCell>
        <mxCell id="DO3_-I0N0fBDQWKYTIKw-29" value="g" style="endArrow=classic;html=1;rounded=0;entryX=0;entryY=0.5;entryDx=0;entryDy=0;labelPosition=center;verticalLabelPosition=top;align=center;verticalAlign=bottom;fontSize=21;" parent="1" target="DO3_-I0N0fBDQWKYTIKw-4" edge="1">
          <mxGeometry width="50" height="50" relative="1" as="geometry">
            <mxPoint x="370" y="240" as="sourcePoint" />
            <mxPoint x="420" y="190" as="targetPoint" />
          </mxGeometry>
        </mxCell>
        <mxCell id="DO3_-I0N0fBDQWKYTIKw-30" value="h" style="endArrow=classic;html=1;rounded=0;entryX=0.963;entryY=0.3;entryDx=0;entryDy=0;entryPerimeter=0;labelPosition=center;verticalLabelPosition=top;align=center;verticalAlign=bottom;fontSize=21;" parent="1" target="DO3_-I0N0fBDQWKYTIKw-15" edge="1">
          <mxGeometry width="50" height="50" relative="1" as="geometry">
            <mxPoint x="480" y="280" as="sourcePoint" />
            <mxPoint x="530" y="230" as="targetPoint" />
          </mxGeometry>
        </mxCell>
        <mxCell id="DO3_-I0N0fBDQWKYTIKw-31" value="i" style="endArrow=classic;html=1;rounded=0;labelPosition=center;verticalLabelPosition=top;align=center;verticalAlign=bottom;fontSize=21;" parent="1" target="DO3_-I0N0fBDQWKYTIKw-4" edge="1">
          <mxGeometry width="50" height="50" relative="1" as="geometry">
            <mxPoint x="620" y="180" as="sourcePoint" />
            <mxPoint x="670" y="130" as="targetPoint" />
          </mxGeometry>
        </mxCell>
        <mxCell id="DO3_-I0N0fBDQWKYTIKw-32" value="j" style="endArrow=classic;html=1;rounded=0;entryX=1;entryY=0;entryDx=0;entryDy=0;labelPosition=center;verticalLabelPosition=top;align=center;verticalAlign=bottom;fontSize=21;" parent="1" target="DO3_-I0N0fBDQWKYTIKw-19" edge="1">
          <mxGeometry width="50" height="50" relative="1" as="geometry">
            <mxPoint x="690" y="150" as="sourcePoint" />
            <mxPoint x="740" y="100" as="targetPoint" />
            <Array as="points">
              <mxPoint x="730" y="270" />
            </Array>
          </mxGeometry>
        </mxCell>
        <mxCell id="DO3_-I0N0fBDQWKYTIKw-33" value="p" style="endArrow=classic;html=1;rounded=0;entryX=0;entryY=0;entryDx=0;entryDy=0;fontSize=21;labelPosition=left;verticalLabelPosition=top;align=right;verticalAlign=bottom;" parent="1" target="DO3_-I0N0fBDQWKYTIKw-21" edge="1">
          <mxGeometry width="50" height="50" relative="1" as="geometry">
            <mxPoint x="140" y="380" as="sourcePoint" />
            <mxPoint x="190" y="330" as="targetPoint" />
            <Array as="points">
              <mxPoint x="110" y="550" />
            </Array>
          </mxGeometry>
        </mxCell>
        <mxCell id="DO3_-I0N0fBDQWKYTIKw-34" value="o" style="endArrow=classic;html=1;rounded=0;fontSize=21;labelPosition=center;verticalLabelPosition=top;align=center;verticalAlign=bottom;" parent="1" target="DO3_-I0N0fBDQWKYTIKw-13" edge="1">
          <mxGeometry width="50" height="50" relative="1" as="geometry">
            <mxPoint x="320" y="400" as="sourcePoint" />
            <mxPoint x="370" y="350" as="targetPoint" />
          </mxGeometry>
        </mxCell>
        <mxCell id="DO3_-I0N0fBDQWKYTIKw-35" value="s" style="endArrow=classic;html=1;rounded=0;entryX=1;entryY=0;entryDx=0;entryDy=0;fontSize=21;labelPosition=right;verticalLabelPosition=top;align=left;verticalAlign=bottom;" parent="1" target="DO3_-I0N0fBDQWKYTIKw-21" edge="1">
          <mxGeometry x="0.116" y="2" width="50" height="50" relative="1" as="geometry">
            <mxPoint x="320" y="400" as="sourcePoint" />
            <mxPoint x="370" y="350" as="targetPoint" />
            <mxPoint as="offset" />
          </mxGeometry>
        </mxCell>
        <mxCell id="DO3_-I0N0fBDQWKYTIKw-36" value="t" style="endArrow=classic;html=1;rounded=0;fontSize=21;labelPosition=right;verticalLabelPosition=top;align=left;verticalAlign=bottom;" parent="1" target="DO3_-I0N0fBDQWKYTIKw-19" edge="1">
          <mxGeometry width="50" height="50" relative="1" as="geometry">
            <mxPoint x="370" y="370" as="sourcePoint" />
            <mxPoint x="420" y="320" as="targetPoint" />
          </mxGeometry>
        </mxCell>
        <mxCell id="DO3_-I0N0fBDQWKYTIKw-37" value="v" style="endArrow=classic;html=1;rounded=0;entryX=1;entryY=0;entryDx=0;entryDy=0;fontSize=21;labelPosition=left;verticalLabelPosition=top;align=right;verticalAlign=bottom;" parent="1" target="DO3_-I0N0fBDQWKYTIKw-21" edge="1">
          <mxGeometry width="50" height="50" relative="1" as="geometry">
            <mxPoint x="620" y="440" as="sourcePoint" />
            <mxPoint x="670" y="390" as="targetPoint" />
          </mxGeometry>
        </mxCell>
        <mxCell id="DO3_-I0N0fBDQWKYTIKw-38" value="x" style="endArrow=classic;html=1;rounded=0;entryX=1;entryY=0;entryDx=0;entryDy=0;fontSize=21;labelPosition=right;verticalLabelPosition=bottom;align=left;verticalAlign=top;" parent="1" target="DO3_-I0N0fBDQWKYTIKw-23" edge="1">
          <mxGeometry width="50" height="50" relative="1" as="geometry">
            <mxPoint x="640" y="450" as="sourcePoint" />
            <mxPoint x="690" y="400" as="targetPoint" />
          </mxGeometry>
        </mxCell>
        <mxCell id="DO3_-I0N0fBDQWKYTIKw-40" value="n" style="endArrow=classic;html=1;rounded=0;fontSize=21;exitX=0.75;exitY=1;exitDx=0;exitDy=0;exitPerimeter=0;entryX=0.375;entryY=0;entryDx=0;entryDy=0;entryPerimeter=0;labelPosition=right;verticalLabelPosition=top;align=left;verticalAlign=bottom;" parent="1" source="DO3_-I0N0fBDQWKYTIKw-6" target="DO3_-I0N0fBDQWKYTIKw-13" edge="1">
          <mxGeometry width="50" height="50" relative="1" as="geometry">
            <mxPoint x="360" y="510" as="sourcePoint" />
            <mxPoint x="410" y="460" as="targetPoint" />
          </mxGeometry>
        </mxCell>
      </root>
    </mxGraphModel>
  </diagram>
</mxfile>
